# xmcd CD database file generated by Grip 3.3.1
#
# Track frame offsets:
#       150
#       15877
#       36312
#       53914
#       73572
#       95909
#       111386
#       135918
#       150059
#       170829
#       186237
#       207564
#       226804
#       227254
#       237537
#       243480
#
# Disc length: 3450 seconds
#
# Revision: 1
# Processed by: cddbd v1.5.2PL0 Copyright (c) Steve Scherf et al.
# Submitted via: Grip 3.3.1
#
DISCID=d10d7810
DTITLE=Mouthwash - True Stories
DYEAR=2009
DGENRE=Punk
TTITLE0=Ask And It Is Given
TTITLE1=A Face In The Crowd
TTITLE2=No Fear
TTITLE3=N68
TTITLE4=The Sound
TTITLE5=That Girl
TTITLE6=Everyday Feelin'
TTITLE7=What I Don't Know
TTITLE8=Southbound
TTITLE9=Atlantic Rd.
TTITLE10=Dark Was The Night
TTITLE11=Hazy Days
TTITLE12=[untitled]
TTITLE13=Sound Of The Times
TTITLE14=I Don't Want To Hear It (Live Acoustic Session)
TTITLE15=We Evolve (Live Acoustic Session)
EXTD=
EXTT0=
EXTT1=
EXTT2=
EXTT3=
EXTT4=
EXTT5=
EXTT6=
EXTT7=
EXTT8=
EXTT9=
EXTT10=
EXTT11=
EXTT12=
EXTT13=
EXTT14=
EXTT15=
PLAYORDER=
